<?xml version="1.0" encoding="utf-8"?>
<!-- Generator: Adobe Illustrator 16.0.0, SVG Export Plug-In . SVG Version: 6.00 Build 0)  -->
<!DOCTYPE svg PUBLIC "-//W3C//DTD SVG 1.1//EN" "http://www.w3.org/Graphics/SVG/1.1/DTD/svg11.dtd">
<svg version="1.1" id="Laag_1" xmlns="http://www.w3.org/2000/svg" xmlns:xlink="http://www.w3.org/1999/xlink" x="0px" y="0px"
	 width="165px" height="50px" viewBox="0 0 165 50" enable-background="new 0 0 165 50" xml:space="preserve">
<g id="XMLID_2127_">
	<linearGradient id="SVGID_1_" gradientUnits="userSpaceOnUse" x1="51.855" y1="16.9443" x2="5.6177" y2="57.5682">
		<stop  offset="0.2857" style="stop-color:#FF009D"/>
		<stop  offset="0.4176" style="stop-color:#F30988"/>
		<stop  offset="0.6894" style="stop-color:#D42251"/>
		<stop  offset="0.7635" style="stop-color:#CB2941"/>
	</linearGradient>
	<polygon fill="url(#SVGID_1_)" points="25.306,45.285 12.353,35.621 5.647,38.957 26.8,49.484 47.953,38.957 47.644,38.804 	"/>
	<linearGradient id="SVGID_2_" gradientUnits="userSpaceOnUse" x1="8.4692" y1="31.8633" x2="48.084" y2="31.8633">
		<stop  offset="0.2365" style="stop-color:#CB2941"/>
		<stop  offset="0.3106" style="stop-color:#D42251"/>
		<stop  offset="0.5824" style="stop-color:#F30988"/>
		<stop  offset="0.7143" style="stop-color:#FF009D"/>
	</linearGradient>
	<polygon fill="url(#SVGID_2_)" points="24.656,36.436 15.917,22.839 8.469,23.61 24.583,40.889 48.084,38.457 47.847,38.202 	"/>
	<linearGradient id="SVGID_3_" gradientUnits="userSpaceOnUse" x1="16.4971" y1="24.1299" x2="48.3828" y2="24.1299">
		<stop  offset="0.2365" style="stop-color:#CB2941"/>
		<stop  offset="0.3106" style="stop-color:#D42251"/>
		<stop  offset="0.5824" style="stop-color:#F30988"/>
		<stop  offset="0.7143" style="stop-color:#FF009D"/>
	</linearGradient>
	<polygon fill="url(#SVGID_3_)" points="27.154,27.918 23.743,12.121 16.497,10.229 25.522,32.063 48.383,38.031 48.251,37.713 	"/>
	<linearGradient id="XMLID_2_" gradientUnits="userSpaceOnUse" x1="47.2339" y1="11.6831" x2="0.9954" y2="52.308">
		<stop  offset="0.0739" style="stop-color:#CF2649"/>
		<stop  offset="0.1081" style="stop-color:#D42251"/>
		<stop  offset="0.3571" style="stop-color:#F30A88"/>
		<stop  offset="0.4778" style="stop-color:#FF009D"/>
		<stop  offset="0.936" style="stop-color:#FF009D"/>
	</linearGradient>
	<polygon id="XMLID_3545_" fill="url(#XMLID_2_)" points="48.022,14.127 28.71,0.516 29.5,24.129 48.811,37.74 	"/>
	<path id="XMLID_2129_" opacity="0.2" fill="#231F20" d="M28.71,0.516c0,0,5.028,5.027,9.544,18.156
		C42.83,31.973,48.811,37.74,48.811,37.74L29.5,24.129L28.71,0.516z"/>
</g>
<g>
	<path fill="#111111" d="M69.009,32.203l-1.886-9.894l-1.939,9.894h-2.999L59.94,19.796h2.352l1.581,10.522l2.028-10.522h2.515
		l1.993,10.522l1.723-10.522h2.245l-2.28,12.407H69.009z"/>
	<path fill="#111111" d="M83.032,21.555v3.465h3.986v1.761h-3.986v3.645h4.903v1.777h-7.273V19.796h7.2l-0.252,1.759H83.032z"/>
	<path fill="#111111" d="M102.867,26.547c0.52,0.456,0.78,1.149,0.78,2.084c0,1.293-0.454,2.212-1.364,2.756
		c-0.91,0.545-2.185,0.816-3.825,0.816h-3.735V19.796h3.25c3.425,0,5.136,1.053,5.136,3.16c0,0.731-0.221,1.327-0.664,1.787
		c-0.442,0.46-0.987,0.757-1.634,0.888C101.66,25.787,102.346,26.093,102.867,26.547z M97.094,24.895h1.454
		c0.658,0,1.179-0.146,1.563-0.439c0.383-0.293,0.575-0.727,0.575-1.302c0-0.599-0.201-1.017-0.603-1.257
		c-0.4-0.24-1.026-0.359-1.876-0.359h-1.113V24.895z M100.479,30.031c0.46-0.264,0.69-0.76,0.69-1.491
		c0-0.706-0.219-1.214-0.654-1.525c-0.438-0.311-1.032-0.468-1.788-0.468h-1.633v3.879h1.382
		C99.351,30.426,100.018,30.295,100.479,30.031z"/>
	<path fill="#111111" d="M111.997,30.265h5.782l-0.251,1.938h-8.297V30.39l5.836-8.708h-5.243v-1.886h7.901v1.832L111.997,30.265z"
		/>
	<path fill="#111111" d="M131.875,20.281c0.813,0.503,1.439,1.239,1.877,2.208c0.436,0.969,0.654,2.136,0.654,3.501
		c0,1.353-0.221,2.513-0.664,3.484c-0.443,0.969-1.072,1.712-1.886,2.226c-0.813,0.515-1.771,0.773-2.872,0.773
		c-1.114,0-2.078-0.252-2.892-0.755c-0.814-0.502-1.442-1.239-1.886-2.209s-0.665-2.138-0.665-3.5c0-1.342,0.222-2.5,0.665-3.476
		c0.443-0.975,1.074-1.721,1.895-2.235c0.82-0.514,1.78-0.771,2.883-0.771C130.097,19.527,131.061,19.778,131.875,20.281z
		 M126.793,22.462c-0.503,0.748-0.754,1.93-0.754,3.547c0,3.1,0.98,4.65,2.945,4.65c0.957,0,1.685-0.372,2.182-1.114
		c0.496-0.742,0.744-1.928,0.744-3.555c0-1.616-0.248-2.795-0.744-3.538c-0.497-0.743-1.225-1.113-2.182-1.113
		C128.025,21.34,127.296,21.714,126.793,22.462z"/>
	<path fill="#111111" d="M147.264,32.203l-4.255-10.037c0.107,0.885,0.188,1.687,0.241,2.406c0.054,0.718,0.081,1.574,0.081,2.567
		v5.063h-2.154V19.796h2.998l4.328,10.055c-0.071-0.478-0.144-1.11-0.215-1.894c-0.072-0.783-0.107-1.565-0.107-2.343v-5.818h2.154
		v12.407H147.264z"/>
	<path fill="#111111" d="M160.157,21.555v3.465h3.987v1.761h-3.987v3.645h4.902v1.777h-7.272V19.796h7.201l-0.253,1.759H160.157z"/>
</g>
</svg>
